<?xml version="1.0" encoding="UTF-8" standalone="no"?>
<!DOCTYPE svg PUBLIC "-//W3C//DTD SVG 1.1//EN"
 "http://www.w3.org/Graphics/SVG/1.1/DTD/svg11.dtd">
<!-- Generated by graphviz version 2.47.0 (20210316.0004)
 -->
<!-- Title: dependencies Pages: 1 -->
<svg width="626pt" height="284pt"
 viewBox="0.00 0.00 626.00 284.00" xmlns="http://www.w3.org/2000/svg" xmlns:xlink="http://www.w3.org/1999/xlink">
<g id="graph0" class="graph" transform="scale(1 1) rotate(0) translate(4 280)">
<title>dependencies</title>
<polygon fill="white" stroke="transparent" points="-4,4 -4,-280 622,-280 622,4 -4,4"/>
<text text-anchor="start" x="288.01" y="-42.4" font-family="sans-serif" font-weight="bold" font-size="14.00">Legend</text>
<polygon fill="#ffffb3" stroke="transparent" points="75,-10 75,-30 95,-30 95,-10 75,-10"/>
<text text-anchor="start" x="98.63" y="-15.4" font-family="sans-serif" font-size="14.00"> &#160;Declarations</text>
<polygon fill="#8dd3c7" stroke="transparent" points="188,-10 188,-30 208,-30 208,-10 188,-10"/>
<text text-anchor="start" x="211.73" y="-15.4" font-family="sans-serif" font-size="14.00"> &#160;Module</text>
<polygon fill="#80b1d3" stroke="transparent" points="274,-10 274,-30 294,-30 294,-10 274,-10"/>
<text text-anchor="start" x="297.78" y="-15.4" font-family="sans-serif" font-size="14.00"> &#160;Bootstrap</text>
<polygon fill="#fdb462" stroke="transparent" points="371,-10 371,-30 391,-30 391,-10 371,-10"/>
<text text-anchor="start" x="394.67" y="-15.4" font-family="sans-serif" font-size="14.00"> &#160;Providers</text>
<polygon fill="#fb8072" stroke="transparent" points="467,-10 467,-30 487,-30 487,-10 467,-10"/>
<text text-anchor="start" x="490.73" y="-15.4" font-family="sans-serif" font-size="14.00"> &#160;Exports</text>
<g id="clust14" class="cluster">
<title>cluster_FolderPageModule</title>
<polygon fill="none" stroke="black" stroke-dasharray="1,5" points="306,-70 306,-195 610,-195 610,-70 306,-70"/>
</g>
<g id="clust15" class="cluster">
<title>cluster_FolderPageModule_declarations</title>
<polygon fill="none" stroke="black" points="506,-78 506,-130 602,-130 602,-78 506,-78"/>
</g>
<g id="clust17" class="cluster">
<title>cluster_FolderPageModule_imports</title>
<polygon fill="none" stroke="black" points="314,-78 314,-130 498,-130 498,-78 314,-78"/>
</g>
<g id="clust1" class="cluster">
<title>cluster_AppModule</title>
<polygon fill="none" stroke="black" stroke-dasharray="1,5" points="8,-70 8,-268 298,-268 298,-70 8,-70"/>
</g>
<g id="clust6" class="cluster">
<title>cluster_AppModule_bootstrap</title>
<polygon fill="none" stroke="black" points="96,-208 96,-260 220,-260 220,-208 96,-208"/>
</g>
<g id="clust2" class="cluster">
<title>cluster_AppModule_declarations</title>
<polygon fill="none" stroke="black" points="168,-78 168,-130 290,-130 290,-78 168,-78"/>
</g>
<g id="clust4" class="cluster">
<title>cluster_AppModule_imports</title>
<polygon fill="none" stroke="black" points="16,-78 16,-130 160,-130 160,-78 16,-78"/>
</g>
<!-- AppComponent -->
<g id="node1" class="node">
<title>AppComponent</title>
<polygon fill="#ffffb3" stroke="black" points="281.94,-122 176.06,-122 176.06,-86 281.94,-86 281.94,-122"/>
<text text-anchor="middle" x="229" y="-99.8" font-family="Times,serif" font-size="14.00">AppComponent</text>
</g>
<!-- AppModule -->
<g id="node2" class="node">
<title>AppModule</title>
<polygon fill="#8dd3c7" stroke="black" points="199.66,-187 196.66,-191 175.66,-191 172.66,-187 116.34,-187 116.34,-151 199.66,-151 199.66,-187"/>
<text text-anchor="middle" x="158" y="-164.8" font-family="Times,serif" font-size="14.00">AppModule</text>
</g>
<!-- AppComponent&#45;&gt;AppModule -->
<g id="edge1" class="edge">
<title>AppComponent&#45;&gt;AppModule</title>
<path fill="none" stroke="black" d="M188.05,-122.11C188.05,-122.11 188.05,-140.99 188.05,-140.99"/>
<polygon fill="black" stroke="black" points="184.55,-140.99 188.05,-150.99 191.55,-140.99 184.55,-140.99"/>
</g>
<!-- AppComponent  -->
<g id="node4" class="node">
<title>AppComponent </title>
<polygon fill="#80b1d3" stroke="black" points="212.44,-252 103.56,-252 103.56,-216 212.44,-216 212.44,-252"/>
<text text-anchor="middle" x="158" y="-229.8" font-family="Times,serif" font-size="14.00">AppComponent </text>
</g>
<!-- AppModule&#45;&gt;AppComponent  -->
<g id="edge3" class="edge">
<title>AppModule&#45;&gt;AppComponent </title>
<path fill="none" stroke="black" stroke-dasharray="1,5" d="M158,-187.11C158,-187.11 158,-205.99 158,-205.99"/>
<polygon fill="black" stroke="black" points="154.5,-205.99 158,-215.99 161.5,-205.99 154.5,-205.99"/>
</g>
<!-- AppRoutingModule -->
<g id="node3" class="node">
<title>AppRoutingModule</title>
<polygon fill="#8dd3c7" stroke="black" points="152.27,-122 149.27,-126 128.27,-126 125.27,-122 23.73,-122 23.73,-86 152.27,-86 152.27,-122"/>
<text text-anchor="middle" x="88" y="-99.8" font-family="Times,serif" font-size="14.00">AppRoutingModule</text>
</g>
<!-- AppRoutingModule&#45;&gt;AppModule -->
<g id="edge2" class="edge">
<title>AppRoutingModule&#45;&gt;AppModule</title>
<path fill="none" stroke="black" d="M134.28,-122.11C134.28,-122.11 134.28,-140.99 134.28,-140.99"/>
<polygon fill="black" stroke="black" points="130.78,-140.99 134.28,-150.99 137.78,-140.99 130.78,-140.99"/>
</g>
<!-- FolderPage -->
<g id="node5" class="node">
<title>FolderPage</title>
<polygon fill="#ffffb3" stroke="black" points="593.76,-122 514.24,-122 514.24,-86 593.76,-86 593.76,-122"/>
<text text-anchor="middle" x="554" y="-99.8" font-family="Times,serif" font-size="14.00">FolderPage</text>
</g>
<!-- FolderPageModule -->
<g id="node6" class="node">
<title>FolderPageModule</title>
<polygon fill="#8dd3c7" stroke="black" points="534.81,-187 531.81,-191 510.81,-191 507.81,-187 411.19,-187 411.19,-151 534.81,-151 534.81,-187"/>
<text text-anchor="middle" x="473" y="-164.8" font-family="Times,serif" font-size="14.00">FolderPageModule</text>
</g>
<!-- FolderPage&#45;&gt;FolderPageModule -->
<g id="edge4" class="edge">
<title>FolderPage&#45;&gt;FolderPageModule</title>
<path fill="none" stroke="black" d="M524.39,-122.11C524.39,-122.11 524.39,-140.99 524.39,-140.99"/>
<polygon fill="black" stroke="black" points="520.89,-140.99 524.39,-150.99 527.89,-140.99 520.89,-140.99"/>
</g>
<!-- FolderPageRoutingModule -->
<g id="node7" class="node">
<title>FolderPageRoutingModule</title>
<polygon fill="#8dd3c7" stroke="black" points="490.43,-122 487.43,-126 466.43,-126 463.43,-122 321.57,-122 321.57,-86 490.43,-86 490.43,-122"/>
<text text-anchor="middle" x="406" y="-99.8" font-family="Times,serif" font-size="14.00">FolderPageRoutingModule</text>
</g>
<!-- FolderPageRoutingModule&#45;&gt;FolderPageModule -->
<g id="edge5" class="edge">
<title>FolderPageRoutingModule&#45;&gt;FolderPageModule</title>
<path fill="none" stroke="black" d="M450.78,-122.11C450.78,-122.11 450.78,-140.99 450.78,-140.99"/>
<polygon fill="black" stroke="black" points="447.28,-140.99 450.78,-150.99 454.28,-140.99 447.28,-140.99"/>
</g>
</g>
</svg>
